<svg xmlns="http://www.w3.org/2000/svg" width="422.63" height="315.347" viewBox="0 0 422.63 315.347">
  <g id="about" transform="translate(0 20.773)">
    <ellipse id="Ellipse_11" data-name="Ellipse 11" cx="33.929" cy="28.608" rx="33.929" ry="28.608" transform="translate(0 15.735)" fill="#ff6584"/>
    <path id="Path_5" data-name="Path 5" d="M988.161,610.377a44.557,44.557,0,0,1-2.874,14.339c-.04.108-.082.214-.124.322H974.437c.011-.1.023-.2.034-.322.715-6.931,4.838-49.118-.091-56.332C974.811,568.97,988.989,588.354,988.161,610.377Z" transform="translate(-594.519 -381.988)" fill="#e6e6e6"/>
    <path id="Path_6" data-name="Path 6" d="M993.035,666.775c-.09.108-.183.215-.278.322h-8.045c.061-.092.132-.2.214-.322,1.329-2.023,5.263-8.07,8.915-14.339,3.924-6.737,7.525-13.729,7.222-16.26C1001.156,636.747,1003.871,654.148,993.035,666.775Z" transform="translate(-600.199 -424.047)" fill="#e6e6e6"/>
    <rect id="Rectangle_10" data-name="Rectangle 10" width="308.387" height="0.851" transform="translate(114.242 242.433)" fill="#e6e6e6"/>
    <path id="Path_7" data-name="Path 7" d="M822.844,717.869l1.5-10.421,42.321-9.158-4.869-12.315c3.391-8.2,9.346-12.223,20.224-8.21l18.712,9.8c3.7,1.94,5.86,5.428,5.625,9.1h0c-.233,3.686-2.841,6.969-6.8,8.554C878.611,713.591,851.912,716.795,822.844,717.869Z" transform="translate(-511.205 -448.876)" fill="#ffb8b8"/>
    <path id="Path_8" data-name="Path 8" d="M789.926,759.835l-13.108-1.579-12.26,2.11a6.062,6.062,0,0,1-4.322-.858,4.288,4.288,0,0,1-2.028-3.331h0a4.24,4.24,0,0,1,2.1-3.752l19.212-12.2a9.917,9.917,0,0,1,11.236.573l4.784,3.884a15.677,15.677,0,0,0-7.49,8.21Q792.988,755.175,789.926,759.835Z" transform="translate(-475.665 -487.684)" fill="#2f2e41"/>
    <ellipse id="Ellipse_12" data-name="Ellipse 12" cx="12.123" cy="10.221" rx="12.123" ry="10.221" transform="translate(314.658 142.304)" fill="#ffb8b8"/>
    <path id="Path_9" data-name="Path 9" d="M865.386,507.478l-27.153,9.631c2.207-9.342,3.307-17.853,0-23.052l17.415-1.737C854.784,496.316,859.19,501.667,865.386,507.478Z" transform="translate(-519.666 -334.797)" fill="#ffb8b8"/>
    <path id="Path_10" data-name="Path 10" d="M773.734,667.833l-10.112-.632c-6.195-21.781-9.366-42.368-7.982-61.156.406-5.7,6.083-10.11,12.854-9.987h0a13.885,13.885,0,0,1,8.391,2.922l13.077,10.492a45.781,45.781,0,0,1,13.249,16.633c3.7,8.178,2.374,12.763-6.467,11.984a23.274,23.274,0,0,1-14.206-6.368l-9.553-9.361Z" transform="translate(-474.079 -399.156)" fill="#ffb8b8"/>
    <path id="Path_11" data-name="Path 11" d="M768.951,800.708h0a9.078,9.078,0,0,1-6.633-3.229,6.337,6.337,0,0,1-.993-6.4l1.974-4.881,1.5-12.315c2.308-3.97,5.576-3.376,9.363-.316,2.408-.2,2.924-2.229,2.622-5.052l7.592,8.617a4.48,4.48,0,0,1,.653,5.194l-7.641,14.132A8.963,8.963,0,0,1,768.951,800.708Z" transform="translate(-477.127 -506.149)" fill="#2f2e41"/>
    <path id="Path_12" data-name="Path 12" d="M895.254,658.817c-13.857,6.631-18.2,6.824-32.022,11.526l-11.985-5.684c-14.075,4.388-23.948-1.627-34.643-10.579,7-9.828,3.9-22.6,8.239-22.42L876.715,645.4l2.247,4.737Z" transform="translate(-507.774 -421.244)" fill="#2f2e41"/>
    <path id="Path_13" data-name="Path 13" d="M873.512,576.559c-18.315,6.684-38.035-.393-54.867-15.947L807.5,522.661a2.748,2.748,0,0,1,.441-2.487,3.819,3.819,0,0,1,2.452-1.432l12.933-2.181,6.367,8.526,12.734-9.473,13.523,3.728a9.446,9.446,0,0,1,7.038,6.841Z" transform="translate(-502.699 -349.248)" fill="#bebebe"/>
    <path id="Path_14" data-name="Path 14" d="M884.462,732.6h0a6.026,6.026,0,0,1-4.051-3.822,4.939,4.939,0,0,1,1.361-5l8.561-8.514,5.992,2.842-3.086,10.607a5.84,5.84,0,0,1-3.351,3.61A7.733,7.733,0,0,1,884.462,732.6Z" transform="translate(-542.74 -473.117)" opacity="0.2"/>
    <path id="Path_15" data-name="Path 15" d="M884.462,729.274h0a6.026,6.026,0,0,1-4.051-3.822,4.939,4.939,0,0,1,1.361-5l8.562-8.514,5.992,2.842-3.086,10.607a5.839,5.839,0,0,1-3.351,3.61A7.732,7.732,0,0,1,884.462,729.274Z" transform="translate(-542.74 -471.053)" fill="#ffb8b8"/>
    <path id="Path_16" data-name="Path 16" d="M908.367,602.215l-8.989-5.052L912.486,567.8l-4.868-41.367,4.441,2.34a17.83,17.83,0,0,1,9.331,11.322l7.2,29.6C925.44,583.334,920.188,595.337,908.367,602.215Z" transform="translate(-553.283 -355.958)" fill="#bebebe"/>
    <path id="Path_17" data-name="Path 17" d="M776.661,555.922l4.494,18.947-3.7,11.081Z" transform="translate(-427.008 -356.558)" opacity="0.2"/>
    <path id="Path_18" data-name="Path 18" d="M828.807,451.032s-6.986-19.277,14.365-15.234a17.051,17.051,0,0,1,8.448,4.373,2.265,2.265,0,0,0,1.608.554c3.411,0,5.517,10.276-1.3,14.795,0,0,1.392-6.081-1.138-8.153a4.776,4.776,0,0,1-1.126-1.223c-1.647-2.8-7.182-3.72-11-3.481-1.949.122-2.119,2.987-4.277,2.587A4.6,4.6,0,0,0,828.807,451.032Z" transform="translate(-513.882 -299.384)" fill="#2f2e41"/>
    <path id="Path_19" data-name="Path 19" d="M857.313,550.91l-.141.873-.872,5.385-1.429,8.819-.358,2.208a.8.8,0,0,1-.827.608h-9.528a.8.8,0,0,1-.827-.607l-.364-2.21-1.453-8.819-.888-5.389-.143-.867a.631.631,0,0,1,.2-.559.907.907,0,0,1,.629-.242h15.176a.908.908,0,0,1,.628.241.632.632,0,0,1,.2.558Z" transform="translate(-520.899 -370.651)" fill="#e6e6e6"/>
    <path id="Path_20" data-name="Path 20" d="M712.924,497.33h13.214a.778.778,0,0,1,.835.7v.929a.777.777,0,0,1-.834.7H712.924a.777.777,0,0,1-.834-.7v-.929A.777.777,0,0,1,712.924,497.33Z" transform="translate(-391.506 -320.206)" fill="#3f3d56"/>
    <path id="Path_21" data-name="Path 21" d="M856.1,549.371a104.665,104.665,0,0,1-19.167,0,.777.777,0,0,1-.834-.7h0v-.93a.777.777,0,0,1,.834-.7,93.034,93.034,0,0,0,19.167,0,.777.777,0,0,1,.834.7v.93A.777.777,0,0,1,856.1,549.371Z" transform="translate(-518.491 -368.742)" fill="#3f3d56"/>
    <ellipse id="Ellipse_13" data-name="Ellipse 13" cx="3.602" cy="3.037" rx="3.602" ry="3.037" transform="translate(324.036 185.352)" fill="#fff"/>
    <path id="Path_22" data-name="Path 22" d="M853.306,582.293h0a5.161,5.161,0,0,1-2.22,4.771,7.535,7.535,0,0,1-5.9,1.228l-12.873-2.606.308-5.791,12.62-2.459a7.621,7.621,0,0,1,5.332.9A5.478,5.478,0,0,1,853.306,582.293Z" transform="translate(-516.41 -387.515)" fill="#ffb8b8"/>
    <path id="Path_23" data-name="Path 23" d="M787.084,552.584l-34.741.732a9.437,9.437,0,0,1-6.663-2.438,6.54,6.54,0,0,1-2.095-5.864h0a6.983,6.983,0,0,1,2.647-4.284l16.357-12.9a23.548,23.548,0,0,1,10.9-4.652l5.733-.906,3.371,21.473-19.475-1.895,22.846,2.21Z" transform="translate(-467.58 -353.378)" fill="#bebebe"/>
    <path id="Path_24" data-name="Path 24" d="M626.7,760.167H538.011a2.771,2.771,0,0,1-2.974-2.508h0a474.978,474.978,0,0,1,94.641,0h0a2.771,2.771,0,0,1-2.974,2.507Z" transform="translate(-352.969 -497.951)" fill="#2f2e41"/>
    <path id="Path_25" data-name="Path 25" d="M629.678,674.881l-94.64-.148,10.968-15.561.053-.074V624.8a3.5,3.5,0,0,1,3.76-3.17h64.555a3.5,3.5,0,0,1,3.759,3.17v34.53Z" transform="translate(-352.969 -415.025)" fill="#3f3d56"/>
    <path id="Path_26" data-name="Path 26" d="M566.182,627.463a1.142,1.142,0,0,0-1.224,1.032v31.269a1.142,1.142,0,0,0,1.224,1.033h65.251a1.142,1.142,0,0,0,1.225-1.033V628.5a1.142,1.142,0,0,0-1.225-1.032Z" transform="translate(-369.419 -418.641)" fill="#fff"/>
    <path id="Path_27" data-name="Path 27" d="M563.862,726.161a.54.54,0,0,0-.477.258L560,732.613a.383.383,0,0,0,.035.424.554.554,0,0,0,.442.2h71.074a.553.553,0,0,0,.447-.21.383.383,0,0,0,.023-.431l-3.674-6.195a.539.539,0,0,0-.469-.245Z" transform="translate(-366.669 -479.875)" fill="#2f2e41"/>
    <ellipse id="Ellipse_14" data-name="Ellipse 14" cx="0.787" cy="0.664" rx="0.787" ry="0.664" transform="translate(228.34 206.978)" fill="#fff"/>
    <path id="Path_28" data-name="Path 28" d="M622.371,747.921a.519.519,0,0,0-.507.327l-.848,2.655a.389.389,0,0,0,.09.384.564.564,0,0,0,.417.173h16.123a.56.56,0,0,0,.427-.186.386.386,0,0,0,.068-.4l-1.09-2.655a.527.527,0,0,0-.5-.3Z" transform="translate(-400.23 -493.375)" fill="#2f2e41"/>
    <path id="Path_29" data-name="Path 29" d="M500.907,672.346v.59H428.781l.054-.074v-.516Z" transform="translate(-235.744 -428.789)" fill="#2f2e41"/>
    <path id="Path_30" data-name="Path 30" d="M491.467,579.162a57.112,57.112,0,0,0,3.683,18.378c.051.138.105.274.159.412h13.746c-.015-.124-.029-.262-.044-.412-.917-8.884-6.2-62.955.117-72.2C508.576,526.089,490.4,550.933,491.467,579.162Z" transform="translate(-328.989 -355.282)" fill="#e6e6e6"/>
    <path id="Path_31" data-name="Path 31" d="M480.672,651.447c.115.138.235.276.357.412h10.312c-.078-.117-.169-.256-.274-.412-1.7-2.592-6.746-10.343-11.426-18.378-5.03-8.635-9.645-17.6-9.256-20.841C470.265,612.96,466.784,635.262,480.672,651.447Z" transform="translate(-317.163 -409.19)" fill="#e6e6e6"/>
    <path id="Path_32" data-name="Path 32" d="M535.275,215.539l5.589-3.769c-4.341-.4-6.125,1.593-6.855,3.173a11.117,11.117,0,0,0-7.084.369l11.182,3.423A7.383,7.383,0,0,0,535.275,215.539Z" transform="translate(-348.508 -160.707)" fill="#3f3d56"/>
    <path id="Path_33" data-name="Path 33" d="M909.159,164.434l5.589-3.769c-4.341-.4-6.125,1.593-6.855,3.173a11.117,11.117,0,0,0-7.084.369l11.182,3.423A7.382,7.382,0,0,0,909.159,164.434Z" transform="translate(-554.069 -129.001)" fill="#3f3d56"/>
    <path id="Path_34" data-name="Path 34" d="M837.678,296.189l5.589-3.769c-4.342-.4-6.125,1.593-6.855,3.173a11.117,11.117,0,0,0-7.084.369l11.182,3.423A7.383,7.383,0,0,0,837.678,296.189Z" transform="translate(-514.769 -210.743)" fill="#3f3d56"/>
    <path id="Path_42" data-name="Path 42" d="M47.917.224c27.75.756,51.492,40.468,53.03,88.7s-19.711,86.719-47.461,85.963S1.994,134.419.456,86.187,20.167-.532,47.917.224Z" transform="translate(19.832 -3.056) rotate(-10.221)" fill="#e6e6e6"/>
    <path id="Path_35" data-name="Path 35" d="M301.555,227.682q6.657,15.264,11.849,30.943t8.864,31.646q3.683,15.976,5.839,32.165,2.146,16.161,2.758,32.433.608,16.254-.336,32.514-.116,1.992-.256,3.983c-.095,1.36,2.414,1.355,2.508,0q1.137-16.312.714-32.664-.426-16.258-2.395-32.453-1.974-16.242-5.468-32.32t-8.514-31.871q-5.015-15.782-11.532-31.189-.8-1.878-1.612-3.75c-.553-1.267-2.978-.719-2.419.562Z" transform="translate(-224.554 -169.817)" fill="#3f3d56"/>
    <path id="Path_36" data-name="Path 36" d="M337.21,289.045l11.113-20.8,3.132-5.864a1,1,0,0,0-.45-1.447,1.4,1.4,0,0,0-1.716.379l-11.113,20.8-3.132,5.864a1,1,0,0,0,.45,1.447,1.4,1.4,0,0,0,1.716-.379Z" transform="translate(-242.925 -191.151)" fill="#3f3d56"/>
    <path id="Path_37" data-name="Path 37" d="M303.9,355.838l-25.34-8.01-7.142-2.258a1.307,1.307,0,0,0-1.543.739,1.071,1.071,0,0,0,.876,1.3l25.34,8.011,7.142,2.258a1.307,1.307,0,0,0,1.543-.739,1.071,1.071,0,0,0-.876-1.3Z" transform="translate(-207.162 -243.728)" fill="#3f3d56"/>
    <path id="Path_38" data-name="Path 38" d="M301.672,665.481s30.518-8.46,58.947,0" transform="translate(-224.665 -439.895)" fill="#e6e6e6"/>
    <path id="Path_39" data-name="Path 39" d="M603.4,656.9c6.047-.053,12.094-.144,18.141-.214q3.024-.035,6.048-.061a1.149,1.149,0,1,0,0-2.278c-6.048.053-12.094.144-18.142.214q-3.024.035-6.048.061A1.149,1.149,0,1,0,603.4,656.9Z" transform="translate(-389.84 -435.318)" fill="#bebebe"/>
    <path id="Path_40" data-name="Path 40" d="M603.4,670.9l24.442-.214,6.951-.061a1.149,1.149,0,1,0,0-2.277l-24.441.214-6.951.061A1.149,1.149,0,1,0,603.4,670.9Z" transform="translate(-389.84 -444.004)" fill="#bebebe"/>
    <path id="Path_41" data-name="Path 41" d="M603.4,684.9l24.442-.214,6.951-.061a1.149,1.149,0,1,0,0-2.278l-24.441.214-6.951.061A1.149,1.149,0,1,0,603.4,684.9Z" transform="translate(-389.84 -452.69)" fill="#bebebe"/>
  </g>
</svg>
