<svg xmlns="http://www.w3.org/2000/svg" width="60" height="60" viewBox="0 0 60 60">
  <g id="bodybuilding" transform="translate(-0.087 -0.001)">
    <path id="Path_69" data-name="Path 69" d="M.683,22.291l3.811,1.7c.571.255,1.152.5,1.733.747a34.778,34.778,0,0,1,4.614,2.224,16.383,16.383,0,0,1,4.369,4.6l.369.5A31.975,31.975,0,0,0,9.606,34.8a1,1,0,0,0,1.066,1.7c.087-.054,8.755-5.387,17.377-3.757,6.367,1.2,13.516,11.172,13.588,11.271l.007.007a.981.981,0,0,0,.322.277c.029.016.056.029.085.042a.993.993,0,0,0,.4.1c.011,0,.022-.005.032-.005a1.007,1.007,0,0,0,.275-.045h.008c.013,0,.021-.015.034-.02a.928.928,0,0,0,.23-.114c.015-.01.021-.026.035-.037a.9.9,0,0,0,.149-.16.911.911,0,0,0,.109-.141.9.9,0,0,0,.068-.178.994.994,0,0,0,.051-.182,1.031,1.031,0,0,0,0-.178.913.913,0,0,0-.026-.211.347.347,0,0,0-.006-.049l-.237-.7a90.258,90.258,0,0,1-3.044-10.568,41.9,41.9,0,0,1-.5-9.027c.022-1.449.046-2.946,0-4.44a4.847,4.847,0,0,0-.972-2.771l-2.964-3.959a4.956,4.956,0,0,0,2.493-3.431,1,1,0,0,0-1.978-.33,2.885,2.885,0,0,1-1.435,2c-1.117.462-2.854-.108-5.014-1.647a.992.992,0,0,0-.715-.171,1.006,1.006,0,0,0-.9.313,1,1,0,0,0-.231.921L29.208,14.3a1.048,1.048,0,0,0,.083.185,2.651,2.651,0,0,1-1.847.892,2.1,2.1,0,0,1-1.357-.782l-.95-3.97a1,1,0,0,0-1.952.463l1,4.19c.007.029.03.05.04.079a2.4,2.4,0,0,1-1.839.1,2.733,2.733,0,0,1-1.261-1.636l-.372-2.141a1,1,0,1,0-1.976.341l.4,2.263a1.257,1.257,0,0,1-.355.877,2.174,2.174,0,0,1-1.369.885,2.722,2.722,0,0,1-1.322-.223,16.53,16.53,0,0,0-.248-1.684c-.718-4.018-1.159-8.45,2.708-10.166C22.693,2.158,35.919,1.392,38.126,2.5c2.061,1.034,9.628,12.228,13.749,21.863,3.2,7.5,5.544,19.672,6.186,23.222a1,1,0,0,1-.382.975l-3.918,2.949a.965.965,0,0,1-.3.153c-1.166.364-5.983,1.8-19,5.068C19.748,60.431,9.7,49.372,9.6,49.259a1,1,0,0,0-1.5,1.323,29.354,29.354,0,0,0,6.766,5.181c-2.947,1.11-7.494,2.256-7.55,2.27A1,1,0,0,0,7.555,60a1.041,1.041,0,0,0,.246-.03,67.479,67.479,0,0,0,9.385-3.024,26.238,26.238,0,0,0,17.762,1.727c13.071-3.279,17.935-4.731,19.113-5.094a2.983,2.983,0,0,0,.91-.468l3.92-2.951a2.976,2.976,0,0,0,1.147-2.923c-.651-3.6-3.029-15.955-6.319-23.65C50.124,15.152,42.2,2.308,39.032.717,36.11-.749,22.2.189,17.778,2.152c-5.631,2.5-4.443,9.145-3.873,12.341a12.506,12.506,0,0,1,.226,1.557c0,.2.093,2,3.32,2a4.036,4.036,0,0,0,2.925-1.618,3.8,3.8,0,0,0,1.166.847,3.707,3.707,0,0,0,1.559.334,5.672,5.672,0,0,0,2.507-.667,1.092,1.092,0,0,0,.1-.078,3.575,3.575,0,0,0,1.6.509c.074,0,.149.007.224.007a4.723,4.723,0,0,0,3.23-1.534,4.206,4.206,0,0,0,1.339.473,4.5,4.5,0,0,0,.753.063,6.077,6.077,0,0,0,3.123-1l1.062,1.42a2.889,2.889,0,0,1,.576,1.641c.046,1.447.023,2.921,0,4.345a43.968,43.968,0,0,0,.543,9.449,65.231,65.231,0,0,0,1.695,6.432c-2.88-3.165-7.2-7.1-11.434-7.9a24.155,24.155,0,0,0-10.879.675,1,1,0,0,0-.137-.291l-.579-.783a18.147,18.147,0,0,0-4.936-5.116A36.341,36.341,0,0,0,7.01,22.9c-.569-.242-1.138-.483-1.7-.731L1.5,20.47a1,1,0,1,0-.82,1.824Zm31.792-7.939A2.37,2.37,0,0,1,31.1,13.6L30.426,11a7.933,7.933,0,0,0,3.293,1.023.966.966,0,0,0,.179.564l.888,1.189a3.586,3.586,0,0,1-2.311.576Zm0,0" transform="translate(0 0)"/>
    <path id="Path_70" data-name="Path 70" d="M145.746,401.8a24.59,24.59,0,0,0,5.935-.784,1,1,0,1,0-.485-1.938c-11.074,2.758-14.781-3.262-14.937-3.526a1,1,0,0,0-1.738,1c.148.253,3.125,5.249,11.225,5.249Zm0,0" transform="translate(-118.252 -348.04)"/>
    <path id="Path_71" data-name="Path 71" d="M211.951,175.429v-5.993a1,1,0,0,0-2.006,0v5.993a1,1,0,0,0,2.006,0Zm0,0" transform="translate(-184.782 -148.391)"/>
    <path id="Path_72" data-name="Path 72" d="M269.679,207a1,1,0,0,0,.951-.683l1-3a1,1,0,0,0-1.906-.631l-1,3a1,1,0,0,0,.955,1.314Zm0,0" transform="translate(-236.492 -177.961)"/>
    <path id="Path_73" data-name="Path 73" d="M144.78,207a1,1,0,0,0,.951-1.314l-1-3a1,1,0,0,0-1.906.631l1,3A1,1,0,0,0,144.78,207Zm0,0" transform="translate(-125.634 -177.961)"/>
  </g>
</svg>
