<svg id="cloud-computing" xmlns="http://www.w3.org/2000/svg" width="90" height="90" viewBox="0 0 90 90">
  <path id="Path_43" data-name="Path 43" d="M18.149,242.783a1.318,1.318,0,0,0-1.318-1.318,14.184,14.184,0,0,1-5.872-27.1,1.318,1.318,0,1,0-1.091-2.4A16.821,16.821,0,0,0,16.83,244.1,1.318,1.318,0,0,0,18.149,242.783Z" transform="translate(0 -174.608)"/>
  <path id="Path_44" data-name="Path 44" d="M85.616,40.635a22.3,22.3,0,0,1,41.635-6.482,1.318,1.318,0,1,0,2.328-1.238,25.075,25.075,0,0,0-2.554-3.888V11.453l3.189-3.8a3.956,3.956,0,1,0-2.02-1.694l-3.5,4.167a1.319,1.319,0,0,0-.309.847V26.207a24.867,24.867,0,0,0-7.937-4.9v-9.2a3.955,3.955,0,1,0-2.637,0v8.362a25.145,25.145,0,0,0-9.487-.587V7.677a3.955,3.955,0,1,0-2.637,0V20.37A24.888,24.888,0,0,0,92.2,24.943V12.109a3.955,3.955,0,1,0-2.637,0v15.21a24.775,24.775,0,0,0-6.117,10.9,16.676,16.676,0,0,0-1.9-.979V10.974a1.318,1.318,0,0,0-.309-.847l-3.5-4.167a3.953,3.953,0,1,0-2.021,1.694l3.189,3.8V36.346a16.943,16.943,0,0,0-4.071-.491,1.318,1.318,0,1,0,0,2.637,14.063,14.063,0,0,1,8.673,2.955,1.319,1.319,0,0,0,2.1-.811Zm45.983-38a1.315,1.315,0,1,1-1.318,1.315A1.318,1.318,0,0,1,131.6,2.637ZM115.133,7.068a1.315,1.315,0,1,1-1.318,1.315A1.318,1.318,0,0,1,115.133,7.068ZM103.009,2.637a1.315,1.315,0,1,1-1.318,1.315A1.318,1.318,0,0,1,103.009,2.637ZM90.886,7.068a1.315,1.315,0,1,1-1.318,1.315A1.318,1.318,0,0,1,90.886,7.068ZM73.018,3.952a1.318,1.318,0,1,1,1.318,1.315A1.318,1.318,0,0,1,73.018,3.952Z" transform="translate(-58.009)"/>
  <path id="Path_45" data-name="Path 45" d="M411.315,222.152a12.719,12.719,0,0,0-2.834.317,25.025,25.025,0,0,0-.63-5.439,1.318,1.318,0,0,0-2.57.59,22.387,22.387,0,0,1,.564,5c0,.515-.018,1.04-.054,1.561a1.318,1.318,0,0,0,1.8,1.316,10.055,10.055,0,1,1,3.722,19.395h-4.324a1.318,1.318,0,0,0,0,2.637h4.324a12.689,12.689,0,1,0,0-25.379Z" transform="translate(-334.011 -178.037)"/>
  <path id="Path_46" data-name="Path 46" d="M292.051,380.343H279.833a1.318,1.318,0,0,0,0,2.637h5.529v12.829a3.955,3.955,0,1,0,2.637,0V382.98h4.052a1.318,1.318,0,0,0,0-2.637Zm-5.371,20.506A1.315,1.315,0,1,1,288,399.534,1.318,1.318,0,0,1,286.681,400.849Z" transform="translate(-229.557 -313.486)"/>
  <path id="Path_47" data-name="Path 47" d="M163.491,380.343h-12a1.318,1.318,0,1,0,0,2.637h3.843v12.829a3.955,3.955,0,1,0,2.637,0V382.98h5.525a1.318,1.318,0,1,0,0-2.637Zm-6.843,20.506a1.315,1.315,0,1,1,1.318-1.315A1.318,1.318,0,0,1,156.648,400.849Z" transform="translate(-123.771 -313.486)"/>
  <path id="Path_48" data-name="Path 48" d="M93.067,315.637a3.951,3.951,0,0,0-1.318,7.677v18.019l-5.585,6.654a1.318,1.318,0,1,0,2.02,1.695l5.893-7.022a1.319,1.319,0,0,0,.308-.847v-18.5a3.951,3.951,0,0,0-1.318-7.677Zm0,5.266a1.315,1.315,0,1,1,1.318-1.315A1.318,1.318,0,0,1,93.067,320.9Z" transform="translate(-70.764 -260.154)"/>
  <path id="Path_49" data-name="Path 49" d="M237.455,315.637a3.951,3.951,0,0,0-1.318,7.677v25.521a1.318,1.318,0,0,0,2.637,0V323.314a3.951,3.951,0,0,0-1.318-7.677Zm0,5.266a1.315,1.315,0,1,1,1.318-1.315A1.318,1.318,0,0,1,237.455,320.9Z" transform="translate(-192.455 -260.154)"/>
  <path id="Path_50" data-name="Path 50" d="M367.892,341.334V323.314a3.955,3.955,0,1,0-2.637,0v18.5a1.318,1.318,0,0,0,.309.847l5.893,7.022a1.318,1.318,0,0,0,2.02-1.695Zm-1.318-23.06a1.315,1.315,0,1,1-1.318,1.315A1.318,1.318,0,0,1,366.574,318.274Z" transform="translate(-298.877 -260.154)"/>
</svg>
