<svg xmlns="http://www.w3.org/2000/svg" width="91.432" height="89.191" viewBox="0 0 91.432 89.191">
  <g id="code" transform="translate(0 -1)">
    <path id="Path_65" data-name="Path 65" d="M8.859,42.435a2.75,2.75,0,0,1-2.019-.892,3.181,3.181,0,0,1,0-4.3L17.2,26.219,6.836,15.192a3.181,3.181,0,0,1,0-4.3,2.738,2.738,0,0,1,4.042,0L23.26,24.066a3.181,3.181,0,0,1,0,4.3L10.878,41.543a2.75,2.75,0,0,1-2.019.892Z" transform="translate(16.856 27.485)"/>
    <path id="Path_66" data-name="Path 66" d="M32,22.581H14.857a3.046,3.046,0,0,1,0-6.081H32a3.046,3.046,0,0,1,0,6.081Z" transform="translate(33.716 47.339)"/>
    <path id="Path_67" data-name="Path 67" d="M80.955,90.191H10.477C4.7,90.191,0,85.192,0,79.042V12.149C0,6,4.7,1,10.477,1H80.955c5.779,0,10.477,5,10.477,11.149V79.042C91.432,85.192,86.735,90.191,80.955,90.191ZM10.477,7.081a4.929,4.929,0,0,0-4.762,5.068V79.042a4.929,4.929,0,0,0,4.762,5.068H80.955a4.929,4.929,0,0,0,4.762-5.068V12.149a4.929,4.929,0,0,0-4.762-5.068Z"/>
    <path id="Path_68" data-name="Path 68" d="M88.575,10.581H2.857A2.954,2.954,0,0,1,0,7.541,2.954,2.954,0,0,1,2.857,4.5H88.575a2.954,2.954,0,0,1,2.857,3.041A2.954,2.954,0,0,1,88.575,10.581Z" transform="translate(0 10.689)"/>
  </g>
</svg>
