<svg xmlns="http://www.w3.org/2000/svg" width="30" height="40" viewBox="0 0 30 40">
  <g id="coffee-breaks" transform="translate(-74.015)">
    <path id="Path_79" data-name="Path 79" d="M104.011,10.61l-.5-5.386a1.99,1.99,0,0,0-2.28-1.669l-.242-1.746A2.166,2.166,0,0,0,98.808,0H79.221a2.164,2.164,0,0,0-2.175,1.809L76.8,3.555a1.992,1.992,0,0,0-2.28,1.669l-.5,5.386c-.073.775.93.647,1.439.647l3.108,27.005A2.018,2.018,0,0,0,80.61,40H90.7a.595.595,0,1,0,0-1.188H80.61a.789.789,0,0,1-.8-.679l-.519-4.505H98.737l-.518,4.505a.788.788,0,0,1-.8.679H93.947a.595.595,0,1,0,0,1.188H97.42a2.017,2.017,0,0,0,2.044-1.738l3.108-27C103.081,11.257,104.083,11.385,104.011,10.61ZM98.873,32.439H79.156l-1.83-15.9H100.7Zm1.966-17.085H77.19l-.472-4.1h24.593ZM75.328,10.069l.444-4.74a.661.661,0,0,1,.675-.586h4.862a.595.595,0,1,0,0-1.188H78.067l.221-1.591a.928.928,0,0,1,.932-.776H98.808a.929.929,0,0,1,.933.776l.221,1.591H84.655a.595.595,0,1,0,0,1.188h16.929a.661.661,0,0,1,.674.586l.444,4.74Z" transform="translate(0 0)"/>
    <path id="Path_80" data-name="Path 80" d="M198.195,246.4a4.828,4.828,0,0,0-6.566.223l-1.826,1.859a4.244,4.244,0,0,0,.234,6.223h0a4.834,4.834,0,0,0,6.565-.223l1.826-1.859A4.248,4.248,0,0,0,198.195,246.4Zm-.683,5.414-1.826,1.859a3.535,3.535,0,0,1-4.3.526l2.794-2.845a.572.572,0,0,0-.032-.84.651.651,0,0,0-.886.03l-2.8,2.846a3.088,3.088,0,0,1,.248-4.1l1.826-1.859a3.453,3.453,0,0,1,2.362-1.022l.124,0a3.5,3.5,0,0,1,1.811.5l-1.554,1.583a.572.572,0,0,0,.032.84.669.669,0,0,0,.886-.03l1.553-1.582A3.093,3.093,0,0,1,197.512,251.811Z" transform="translate(-105.101 -226.059)"/>
  </g>
</svg>
