<svg xmlns="http://www.w3.org/2000/svg" xmlns:xlink="http://www.w3.org/1999/xlink" width="57" height="57" viewBox="0 0 57 57">
  <defs>
    <filter id="github" x="0" y="0" width="57" height="57" filterUnits="userSpaceOnUse">
      <feOffset dy="3" input="SourceAlpha"/>
      <feGaussianBlur stdDeviation="3" result="blur"/>
      <feFlood flood-opacity="0.161"/>
      <feComposite operator="in" in2="blur"/>
      <feComposite in="SourceGraphic"/>
    </filter>
  </defs>
  <g id="github-2" data-name="github" transform="translate(-1084 -4511)">
    <g transform="matrix(1, 0, 0, 1, 1084, 4511)" filter="url(#github)">
      <circle id="github-3" data-name="github" cx="19.5" cy="19.5" r="19.5" transform="translate(9 6)" fill="#fff"/>
    </g>
    <path id="github-4" data-name="github" d="M13.045,39.4c0,.161-.181.29-.409.29-.259.024-.44-.1-.44-.29,0-.161.181-.29.409-.29C12.84,39.088,13.045,39.217,13.045,39.4ZM10.6,39.04c-.055.161.1.347.338.4a.365.365,0,0,0,.488-.161c.047-.161-.1-.347-.338-.419a.4.4,0,0,0-.487.185Zm3.475-.137c-.228.056-.385.21-.362.4.024.161.228.266.464.21s.385-.21.362-.371S14.3,38.879,14.075,38.9ZM19.248,8C8.343,8,0,16.492,0,27.677a20.188,20.188,0,0,0,13.328,19.29c1.006.185,1.36-.452,1.36-.976,0-.5-.024-3.258-.024-4.952,0,0-5.5,1.21-6.66-2.4,0,0-.9-2.347-2.186-2.952,0,0-1.8-1.266.126-1.242a4.134,4.134,0,0,1,3.035,2.081c1.722,3.113,4.608,2.218,5.732,1.685a4.527,4.527,0,0,1,1.258-2.718c-4.4-.5-8.83-1.153-8.83-8.911A6.192,6.192,0,0,1,9,21.83a7.8,7.8,0,0,1,.2-5.476c1.643-.524,5.425,2.177,5.425,2.177a18.128,18.128,0,0,1,9.876,0s3.782-2.71,5.425-2.177a7.8,7.8,0,0,1,.2,5.476,6.342,6.342,0,0,1,2.029,4.75c0,7.782-4.631,8.4-9.027,8.911a4.835,4.835,0,0,1,1.337,3.742c0,2.718-.024,6.081-.024,6.742,0,.524.362,1.161,1.36.976C33.669,44.274,39,36.621,39,27.677A19.516,19.516,0,0,0,19.248,8ZM7.643,35.814c-.1.081-.079.266.055.419.126.129.307.185.409.081.1-.081.079-.266-.055-.419C7.926,35.766,7.745,35.709,7.643,35.814Zm-.849-.653c-.055.1.024.234.181.315a.23.23,0,0,0,.338-.056c.055-.1-.024-.234-.181-.315C6.974,35.056,6.849,35.08,6.794,35.161Zm2.548,2.871c-.126.1-.079.347.1.5.181.185.409.21.511.081.1-.1.055-.347-.1-.5C9.679,37.927,9.443,37.9,9.341,38.032Zm-.9-1.185c-.126.081-.126.29,0,.476s.338.266.44.185a.375.375,0,0,0,0-.5c-.11-.185-.315-.266-.44-.161Z" transform="translate(1093 4509)"/>
  </g>
</svg>
