<svg xmlns="http://www.w3.org/2000/svg" width="90" height="90" viewBox="0 0 90 90">
  <g id="hacker" transform="translate(0 -9.25)">
    <path id="Path_55" data-name="Path 55" d="M83.013,69.18q-.44-.728-.907-1.5a1.291,1.291,0,0,0-1.817-.434,1.4,1.4,0,0,0-.419,1.885q.467.776.909,1.5c1.923,3.179,3.454,5.711,4.554,8.047a25.687,25.687,0,0,0-7.638-3.815V53.2a4.036,4.036,0,0,0-3.955-4.1H69.989c-.364-1.884-.709-3.76-1.044-5.584-2.182-11.878-4.066-22.137-9.691-28.405a1.285,1.285,0,0,0-1.863-.069,1.4,1.4,0,0,0-.067,1.933c4.265,4.753,6.236,12.442,8,21.525-.7-1.209-1.484-2.456-2.367-3.71C58.844,28.955,52.635,25.871,45,25.871s-13.844,3.083-17.954,8.917c-.883,1.254-1.67,2.5-2.367,3.71C27.625,23.3,31.163,11.986,45,11.986a16.969,16.969,0,0,1,9.069,2.259,1.293,1.293,0,0,0,1.8-.487,1.4,1.4,0,0,0-.469-1.872A19.448,19.448,0,0,0,45,9.25c-8.009,0-13.718,3.449-17.453,10.543-3.279,6.228-4.84,14.725-6.492,23.721-.335,1.824-.681,3.7-1.044,5.584H16.26A4.036,4.036,0,0,0,12.3,53.2v6.926c-2,3.562-3.758,6.476-5.317,9.053C2.63,76.383,0,80.73,0,87.076a8.238,8.238,0,0,0,5.034,8.012A19.761,19.761,0,0,0,12.527,96.5,3.974,3.974,0,0,0,16.26,99.25H73.74A3.974,3.974,0,0,0,77.473,96.5a19.769,19.769,0,0,0,7.493-1.413A8.238,8.238,0,0,0,90,87.076c0-6.346-2.63-10.693-6.987-17.9ZM67.139,49.1H60.5l.964-5.645a8.8,8.8,0,0,0,1.666-3.408A48.483,48.483,0,0,1,67.139,49.1ZM60.66,36.175l.006.008a1.055,1.055,0,0,1,.218.638c0,3.1-1.082,6.806-6.235,6.806-4.134,0-6.06-2-6.06-6.285,0-1.022,2.336-2.5,6.561-2.5,2.914,0,4.875.488,5.51,1.335Zm-3.943-4.023c-.494-.031-1.015-.047-1.567-.047-4.089,0-7.245,1.228-8.547,3.156a6.946,6.946,0,0,0-3.206,0c-1.3-1.928-4.458-3.156-8.547-3.156-.553,0-1.073.016-1.568.047A19.185,19.185,0,0,1,45,28.607a19.183,19.183,0,0,1,11.717,3.545Zm-27.6,4.669a1.054,1.054,0,0,1,.219-.639l0-.006c.635-.847,2.6-1.335,5.511-1.335,4.225,0,6.561,1.479,6.561,2.5,0,4.288-1.926,6.285-6.06,6.285-5.154,0-6.235-3.7-6.235-6.806Zm-2.251,3.223a8.8,8.8,0,0,0,1.666,3.408L29.5,49.1H22.861a48.474,48.474,0,0,1,4-9.053ZM2.637,87.076c0-5.558,2.339-9.424,6.584-16.442.95-1.571,1.976-3.266,3.084-5.157v9.391a28.987,28.987,0,0,0-4.252,1.723,1.391,1.391,0,0,0-.61,1.828,1.315,1.315,0,0,0,1.187.771,1.275,1.275,0,0,0,.575-.138,26.216,26.216,0,0,1,3.1-1.31V89.676a4.188,4.188,0,0,0,.671,2.285,2.777,2.777,0,0,0-.67,1.8c-6.673-.234-9.669-2.322-9.669-6.68Zm72.422,8.07a1.345,1.345,0,0,1-1.318,1.368H16.26a1.345,1.345,0,0,1-1.318-1.368l0-1.368H42.35a1.369,1.369,0,0,0,0-2.736H16.26a1.345,1.345,0,0,1-1.318-1.368V53.2a1.345,1.345,0,0,1,1.318-1.368H44.509L38.819,70.2a1.41,1.41,0,0,0,.19,1.224,1.3,1.3,0,0,0,1.065.562h6.8L42.428,86.354a1.379,1.379,0,0,0,.852,1.721,1.31,1.31,0,0,0,1.658-.884l5-16.154a1.41,1.41,0,0,0-.19-1.224,1.3,1.3,0,0,0-1.065-.562h-6.8l5.69-18.366a1.41,1.41,0,0,0-.19-1.224,1.3,1.3,0,0,0-1.065-.562H32.173l-.583-3.415a10.023,10.023,0,0,0,3.761.68c5.425,0,8.492-3,8.686-8.46a4.975,4.975,0,0,1,1.925,0c.195,5.461,3.261,8.46,8.686,8.46a10.026,10.026,0,0,0,3.761-.68L57.827,49.1H51.591a1.369,1.369,0,0,0,0,2.736H73.74A1.345,1.345,0,0,1,75.059,53.2V89.676a1.345,1.345,0,0,1-1.318,1.368H47.623a1.369,1.369,0,0,0,0,2.736l26.085,0,.032,0,.065,0h1.254Zm2.636-1.391a2.777,2.777,0,0,0-.67-1.8,4.188,4.188,0,0,0,.671-2.285V77.741c3.126,1.091,9.668,4.01,9.668,9.335C87.363,91.435,84.367,93.522,77.694,93.756Z"/>
  </g>
</svg>
