<svg xmlns="http://www.w3.org/2000/svg" xmlns:xlink="http://www.w3.org/1999/xlink" width="57" height="57" viewBox="0 0 57 57">
  <defs>
    <filter id="Path_1" x="0" y="0" width="57" height="57" filterUnits="userSpaceOnUse">
      <feOffset dy="3" input="SourceAlpha"/>
      <feGaussianBlur stdDeviation="3" result="blur"/>
      <feFlood flood-opacity="0.161"/>
      <feComposite operator="in" in2="blur"/>
      <feComposite in="SourceGraphic"/>
    </filter>
  </defs>
  <g id="linkedin" transform="translate(9 6)">
    <g transform="matrix(1, 0, 0, 1, -9, -6)" filter="url(#Path_1)">
      <path id="Path_1-2" data-name="Path 1" d="M19.5,0A19.5,19.5,0,1,1,0,19.5,19.5,19.5,0,0,1,19.5,0Z" transform="translate(9 6)"/>
    </g>
    <path id="linkedin-in-brands" d="M4.477,20.01H.33V6.657H4.477ZM2.4,4.836A2.413,2.413,0,1,1,4.8,2.411,2.422,2.422,0,0,1,2.4,4.836ZM20,20.01H15.858v-6.5c0-1.549-.031-3.536-2.156-3.536-2.156,0-2.486,1.683-2.486,3.424V20.01H7.074V6.657h3.977V8.478h.058a4.357,4.357,0,0,1,3.923-2.156c4.2,0,4.968,2.763,4.968,6.353V20.01Z" transform="translate(10 9.99)" fill="#fff"/>
  </g>
</svg>
