<svg xmlns="http://www.w3.org/2000/svg" width="90" height="90" viewBox="0 0 90 90">
  <g id="Machine" transform="translate(-2 -2)">
    <path id="Path_56" data-name="Path 56" d="M46,25a8.009,8.009,0,0,1,8,8,1,1,0,0,0,2,0,9.95,9.95,0,0,0-2.653-6.76A10.962,10.962,0,0,1,62,22a1,1,0,0,0,0-2,12.956,12.956,0,0,0-10.148,4.908A9.934,9.934,0,0,0,46,23a1,1,0,0,0,0,2Z" transform="translate(-1.162 -0.462)"/>
    <circle id="Ellipse_15" data-name="Ellipse 15" cx="1" cy="1" r="1" transform="translate(61.644 48.933)"/>
    <circle id="Ellipse_16" data-name="Ellipse 16" cx="1" cy="1" r="1" transform="translate(65.556 48.933)"/>
    <circle id="Ellipse_17" data-name="Ellipse 17" cx="1" cy="1" r="1" transform="translate(69.467 48.933)"/>
    <circle id="Ellipse_18" data-name="Ellipse 18" cx="1" cy="1" r="1" transform="translate(35.244 48.933)"/>
    <path id="Path_57" data-name="Path 57" d="M89.065,83.335V75.37a.974.974,0,0,0-.287-.692l-7.539-7.539V54.253l3.913,3.913v8.4a.978.978,0,1,0,1.957,0v-8.8a.974.974,0,0,0-.287-.692l-5.583-5.583V47a10.757,10.757,0,0,0,4.686-20.442A10.543,10.543,0,0,0,86.13,24.5,10.774,10.774,0,0,0,75.37,13.739a10.619,10.619,0,0,0-2.584.321A10.732,10.732,0,0,0,57.819,8.047a12.7,12.7,0,0,0-21.637,0A10.732,10.732,0,0,0,21.214,14.06a10.619,10.619,0,0,0-2.584-.321A10.774,10.774,0,0,0,7.87,24.5a10.543,10.543,0,0,0,.205,2.058,10.751,10.751,0,0,0,2.739,20.256v3.7L6.219,55.112a.978.978,0,0,0-.287.693v9.257a16.712,16.712,0,0,0-1.6,2.233.975.975,0,0,0,.094,1.128l1.631,1.938a13.511,13.511,0,0,0-.768,2.36l-2.467.61a.979.979,0,0,0-.739.858C2.025,74.75,2,75.263,2,75.754s.025,1,.079,1.565a.979.979,0,0,0,.739.858l2.467.61a13.678,13.678,0,0,0,.768,2.36L4.422,83.085a.978.978,0,0,0-.094,1.128,16.759,16.759,0,0,0,1.845,2.535.984.984,0,0,0,1.1.259l2.344-.952a13.8,13.8,0,0,0,2.008,1.465l-.183,2.528a.978.978,0,0,0,.587.968,16.564,16.564,0,0,0,2.975.96.983.983,0,0,0,1.044-.438l1.339-2.155a11.449,11.449,0,0,0,2.483,0l1.341,2.155a.974.974,0,0,0,.83.462,1.061,1.061,0,0,0,.213-.023,16.434,16.434,0,0,0,2.974-.961.977.977,0,0,0,.587-.967l-.182-2.528a13.848,13.848,0,0,0,2.008-1.465l2.344.952a.981.981,0,0,0,1.1-.259,16.685,16.685,0,0,0,1.845-2.535c.008-.013.009-.026.016-.039H55.4L59.027,87.8a.973.973,0,0,0,.691.286h24.6a3.9,3.9,0,1,0,4.752-4.752ZM3.957,36.239a8.863,8.863,0,0,1,8.8-8.8.978.978,0,1,0,0-1.957,10.536,10.536,0,0,0-2.811.4A8.544,8.544,0,0,1,9.826,24.5a8.8,8.8,0,0,1,14.4-6.785,7.778,7.778,0,0,0-1.68,4.829.978.978,0,1,0,1.957,0,5.875,5.875,0,0,1,5.87-5.87.978.978,0,0,0,0-1.957,7.776,7.776,0,0,0-4.752,1.623A10.691,10.691,0,0,0,23.065,14.7,8.732,8.732,0,0,1,35.278,9.8a12.636,12.636,0,0,0-.819,2.8.978.978,0,0,0,.8,1.126.918.918,0,0,0,.162.014.979.979,0,0,0,.964-.817A10.756,10.756,0,0,1,47,3.957,10.689,10.689,0,0,1,56.136,9.1a10.733,10.733,0,0,0-2.093,2.1.978.978,0,0,0,1.564,1.175,8.8,8.8,0,0,1,14-.114A8.511,8.511,0,0,1,71.271,15.8a10.589,10.589,0,0,1,.186,1.85.978.978,0,0,0,1.957,0,10.575,10.575,0,0,0-.152-1.69A8.683,8.683,0,0,1,75.37,15.7a8.814,8.814,0,0,1,8.8,8.8,8.569,8.569,0,0,1-.128,1.392,10.721,10.721,0,0,0-10.089,2.456,8.754,8.754,0,0,0-5.435-1.892.978.978,0,1,0,0,1.957,6.857,6.857,0,0,1,6.848,6.848.978.978,0,1,0,1.957,0,8.764,8.764,0,0,0-1.97-5.541,8.795,8.795,0,1,1,5.883,15.323H53.915A7.833,7.833,0,0,1,61.674,38.2a.978.978,0,1,0,0-1.957,9.8,9.8,0,0,0-9.733,8.8H39.174a8.817,8.817,0,0,1-8.756-7.888,9.738,9.738,0,0,0,5.891-2.8.978.978,0,0,0-1.383-1.383,7.836,7.836,0,0,1-11.068,0,.978.978,0,0,0-1.383,1.383,9.737,9.737,0,0,0,5.984,2.816,10.734,10.734,0,0,0,4.565,7.874H12.761a8.812,8.812,0,0,1-8.8-8.8Zm48.913,22.5V77.326H45.448L42.8,74.678a.974.974,0,0,0-.692-.287H39.174V67.543h4.052a3.9,3.9,0,1,0,4.752-4.752V47h8.8v7.421l-3.626,3.626A.974.974,0,0,0,52.87,58.739ZM35.2,74.391c-.006-.068-.008-.132-.015-.2a.979.979,0,0,0-.739-.858l-2.467-.61a13.678,13.678,0,0,0-.768-2.36l1.631-1.938a.978.978,0,0,0,.094-1.128,16.759,16.759,0,0,0-1.845-2.535.982.982,0,0,0-1.1-.259l-2.344.952a13.8,13.8,0,0,0-2.008-1.465l.183-2.528a.977.977,0,0,0-.587-.967,16.313,16.313,0,0,0-2.687-.883V56.783a.974.974,0,0,0-.287-.692l-5.583-5.583V47H46.022v3.508l-6.275,6.275H36.1a3.913,3.913,0,1,0,0,1.957h4.052a.974.974,0,0,0,.692-.287l5.178-5.178v9.517a3.906,3.906,0,0,0-2.8,2.8H38.2a.977.977,0,0,0-.978.978v7.826ZM47,64.609a1.957,1.957,0,1,1-1.957,1.957A1.958,1.958,0,0,1,47,64.609ZM34.283,57.761A1.957,1.957,0,1,1,32.326,55.8,1.958,1.958,0,0,1,34.283,57.761Zm-21.8-6.146a.976.976,0,0,0,.287-.692V47h1.947v3.913A.974.974,0,0,0,15,51.6l5.583,5.583v3.787l-.714,1.149a11.207,11.207,0,0,0-2.483,0l-1.341-2.155a.977.977,0,0,0-1.043-.438,16.434,16.434,0,0,0-2.974.961.977.977,0,0,0-.587.967l.182,2.528a13.848,13.848,0,0,0-2.008,1.465l-1.73-.7V56.209ZM30.9,77.037a.976.976,0,0,0-.728.779,11.577,11.577,0,0,1-1,3.059.977.977,0,0,0,.132,1.058L30.883,83.8c-.255.387-.529.764-.82,1.125L27.8,84.008a.981.981,0,0,0-1.046.2,11.769,11.769,0,0,1-2.606,1.9.978.978,0,0,0-.514.933l.175,2.434q-.64.241-1.316.424L21.2,87.82a.977.977,0,0,0-.831-.462,1.012,1.012,0,0,0-.133.009,10.219,10.219,0,0,1-3.22,0,.978.978,0,0,0-.964.453L14.762,89.9q-.674-.182-1.317-.424l.176-2.434a.979.979,0,0,0-.514-.933,11.8,11.8,0,0,1-2.606-1.9.98.98,0,0,0-1.046-.2L7.2,84.925c-.29-.361-.563-.738-.82-1.126l1.571-1.867a.977.977,0,0,0,.132-1.058,11.612,11.612,0,0,1-1-3.059.976.976,0,0,0-.728-.779l-2.38-.589c-.013-.241-.02-.471-.02-.694s.007-.453.02-.693l2.381-.59a.976.976,0,0,0,.728-.779,11.564,11.564,0,0,1,1-3.059.977.977,0,0,0-.132-1.058L6.379,67.708c.255-.387.529-.764.82-1.125l2.259.918a.986.986,0,0,0,1.046-.2,11.769,11.769,0,0,1,2.606-1.9.978.978,0,0,0,.514-.933l-.175-2.434q.64-.241,1.316-.424l1.3,2.081a.982.982,0,0,0,.963.453,10.1,10.1,0,0,1,3.22,0,.987.987,0,0,0,.964-.453L22.5,61.607c.45.121.89.263,1.317.424l-.176,2.434a.979.979,0,0,0,.514.933,11.8,11.8,0,0,1,2.606,1.9.983.983,0,0,0,1.046.2l2.259-.918c.29.361.563.738.82,1.126l-1.571,1.867a.977.977,0,0,0-.132,1.058,11.648,11.648,0,0,1,1,3.059.976.976,0,0,0,.728.779l2.381.59c.012.24.019.469.019.693s-.007.454-.02.694Zm45.443.29A1.957,1.957,0,1,1,78.3,75.37,1.959,1.959,0,0,1,76.348,77.326Zm7.965,8.8H77.326V79.144a3.913,3.913,0,1,0-1.957,0V86.13H60.122L56.5,82.5a.974.974,0,0,0-.692-.287h-23.7l-.9-1.071a13.594,13.594,0,0,0,.768-2.36l2.467-.61a.979.979,0,0,0,.739-.858c.032-.34.052-.659.064-.97H41.7L44.351,79a.978.978,0,0,0,.693.287H66.565a.977.977,0,0,0,.978-.978V70.883l8.518-8.518a.974.974,0,0,0,.287-.692V49.935a.978.978,0,0,0-1.957,0V61.269l-8.518,8.518a.974.974,0,0,0-.287.692v6.848H60.7V65.014l3.894-3.894a3.861,3.861,0,0,0,1.975.555,3.913,3.913,0,1,0-3.913-3.913,3.861,3.861,0,0,0,.555,1.975l-4.181,4.181a.974.974,0,0,0-.287.692V77.326H54.826V59.144l3.626-3.626a.974.974,0,0,0,.287-.692V47H79.283V67.543a.974.974,0,0,0,.287.692l7.539,7.539v7.56a3.9,3.9,0,0,0-2.8,2.8Zm-19.7-28.37a1.957,1.957,0,1,1,1.957,1.957A1.958,1.958,0,0,1,64.609,57.761Zm23.478,31.3a1.957,1.957,0,1,1,1.957-1.957A1.958,1.958,0,0,1,88.087,89.065Z"/>
    <path id="Path_58" data-name="Path 58" d="M19,68.393a9,9,0,0,0-5.625,16.025,1,1,0,1,0,1.25-1.56,6.975,6.975,0,0,1-1.58-9.125L18,77.862v7.531a1,1,0,0,0,1,1,9,9,0,0,0,0-18Zm4.673,3.8L19,76.091,14.327,72.2a6.957,6.957,0,0,1,9.346,0ZM20,84.321v-6.46l4.955-4.129A6.984,6.984,0,0,1,20,84.321Z" transform="translate(0 -2)"/>
    <path id="Path_59" data-name="Path 59" d="M34,51a1,1,0,0,0-1-1H21a1,1,0,0,0,0,2H33A1,1,0,0,0,34,51Z" transform="translate(-0.462 -1.067)"/>
  </g>
</svg>
