<svg xmlns="http://www.w3.org/2000/svg" width="60" height="70" viewBox="0 0 60 70">
  <g id="netflix" transform="translate(-83.505)">
    <g id="Group_21" data-name="Group 21" transform="translate(83.505)">
      <path id="Path_74" data-name="Path 74" d="M122.635,0V32.176L103.423,0H83.505V70l3.032-.392c5.074-.655,10.258-1.13,15.409-1.41l2.429-.132V37.455l18.286,30.621,1.54.077c5.441.274,10.916.763,16.273,1.455L143.5,70V0ZM99.157,64.253c-3.487.229-6.979.543-10.435.939V11.245L99.157,28.718Zm26.919-.11L90.22,4.1h9.888l36.358,60.891C133.019,64.627,129.543,64.342,126.076,64.143Zm12.212-5.753L127.853,40.914V4.1h10.435Z" transform="translate(-83.505)"/>
    </g>
  </g>
</svg>
