<svg xmlns="http://www.w3.org/2000/svg" width="60" height="60" viewBox="0 0 60 60">
  <g id="swimming" transform="translate(0 -61.668)">
    <path id="Path_75" data-name="Path 75" d="M58.886,90.1c-3.59.077-3.72,1.85-7.046,1.85-3.4,0-3.459-1.852-7.281-1.852a7.64,7.64,0,0,0-3.915.983,2.914,2.914,0,0,1,.927-2.727l.783-.6a4.362,4.362,0,0,0,4.5.047l4.7-2.993A7.742,7.742,0,0,0,54.521,81a1.353,1.353,0,0,0-.382-1.558.791.791,0,0,0-1.183.5,6.006,6.006,0,0,1-1.514,2.284l-2.374-5.416v0L46.7,71.4c2.175-1.339,4.823-.4,6.115,2.469a7.506,7.506,0,0,1,.5,1.537c.13.616.614.977,1.082.806a1.236,1.236,0,0,0,.612-1.425,10.262,10.262,0,0,0-.681-2.1c-1.935-4.293-6.161-5.5-9.323-2.67l-4.269,3.823A8.121,8.121,0,0,0,38.515,79l-.781.594a1.707,1.707,0,0,1-2.643-.933L28.525,63.685c-.692-1.579-2.109-2.352-3.445-1.88L6.558,68.343a2.285,2.285,0,0,0-1.282,1.3,3.541,3.541,0,0,0-.211,2.11c.491,2.412,2.282,3.832,4.05,3.448a3.088,3.088,0,0,0,1.962,2.519c1.361.4,2.716-.713,3.084-2.527l.37-1.821,5.864-1.39a8.083,8.083,0,0,0,3.273-1.67,11.574,11.574,0,0,0,.886,3.354c.78,1.776.788,1.812.936,2.119a4.673,4.673,0,0,1-1.009,5.514l-3.1,2.356a1.375,1.375,0,0,0-.322,1.582.775.775,0,0,0,1.2.424l3.1-2.356c2.335-1.776,3.068-5.75,1.614-8.761-.11-.228-.115-.253-.9-2.034a8.975,8.975,0,0,1-.725-3.76,1.569,1.569,0,0,0-.624-1.353.9.9,0,0,0-1.191.191A6.867,6.867,0,0,1,20.086,69.7l-6.413,1.521a1.024,1.024,0,0,0-.693.84l-.515,2.531c-.123.6-.575.991-1.007.865a1.16,1.16,0,0,1-.633-1.372,1.484,1.484,0,0,0-.238-1.161.774.774,0,0,0-.878-.308l-.7.246c-.98.346-1.986-.419-2.249-1.711a.493.493,0,0,1,.249-.569l18.522-6.538a1.2,1.2,0,0,1,1.468.8l6.566,14.981c1,2.293,3.181,3.068,4.905,1.881a8.9,8.9,0,0,0,.588,2.719,6.689,6.689,0,0,0,1.5,2.033,5.672,5.672,0,0,0-1.6,5.312,6.921,6.921,0,0,1-1.682.184c-3.41,0-3.456-1.852-7.28-1.852-3.787,0-3.907,1.852-7.28,1.852-3.152,0-3.323-1.518-6.354-1.81l2.227-1.693a1.375,1.375,0,0,0,.322-1.582.776.776,0,0,0-1.2-.424l-5.924,4.505-.307.155a6.309,6.309,0,0,1-3.323.848c-3.335,0-3.436-1.773-7.045-1.85C.522,90.082,0,90.717,0,91.543v28.683a1.306,1.306,0,0,0,1.095,1.442H58.905A1.306,1.306,0,0,0,60,120.226V102.868a.912.912,0,1,0-1.758,0v16.484H1.758v-26.9c2.508.263,2.936,1.809,6.4,1.809,3.8,0,3.9-1.852,7.28-1.852,3.41,0,3.456,1.852,7.28,1.852,3.787,0,3.907-1.852,7.28-1.852,3.4,0,3.458,1.852,7.28,1.852,3.839,0,3.853-1.852,7.28-1.852,3.4,0,3.459,1.852,7.281,1.852,3.472,0,3.884-1.545,6.4-1.809v5.008a.912.912,0,1,0,1.758,0V91.543C60,90.715,59.479,90.086,58.886,90.1Zm-10.9-11.129,1.9,4.332-.927.59a.85.85,0,0,1-1.238-.5l-.91-2.076a1.492,1.492,0,0,1,.349-1.714ZM44.351,73.4l.857-.767,1.9,4.332-.828.63a.84.84,0,0,1-1.3-.459l-.91-2.076a1.523,1.523,0,0,1,.283-1.659Zm-2.63,2.355.538-.482a4.249,4.249,0,0,0,.286.944l.91,2.076a2.981,2.981,0,0,0,1.534,1.62,4.553,4.553,0,0,0,.3,2.558l.91,2.076a3.563,3.563,0,0,0,.477.8l-.586.373c-2,1.273-4.9-1.066-5.5-2.455S39.885,77.4,41.722,75.758Z"/>
    <path id="Path_76" data-name="Path 76" d="M81.518,309.218a6.307,6.307,0,0,1,3.323-.848,1.2,1.2,0,0,0,0-2.316,7.676,7.676,0,0,0-3.957,1,6.932,6.932,0,0,1-6.646,0,8.3,8.3,0,0,0-7.914,0,6.309,6.309,0,0,1-3.323.848,1.2,1.2,0,0,0,0,2.316,7.677,7.677,0,0,0,3.957-1,6.933,6.933,0,0,1,6.647,0,8.3,8.3,0,0,0,7.914,0Z" transform="translate(-54.842 -206.659)"/>
    <path id="Path_77" data-name="Path 77" d="M187.249,370.442a7.677,7.677,0,0,0,3.957-1,6.932,6.932,0,0,1,6.646,0,8.3,8.3,0,0,0,7.914,0,6.934,6.934,0,0,1,6.647,0,7.676,7.676,0,0,0,3.957,1,1.2,1.2,0,0,0,0-2.316,6.31,6.31,0,0,1-3.324-.848,8.3,8.3,0,0,0-7.914,0,6.933,6.933,0,0,1-6.647,0,8.3,8.3,0,0,0-7.914,0,6.307,6.307,0,0,1-3.323.848,1.2,1.2,0,0,0,0,2.316Z" transform="translate(-164.53 -257.583)"/>
    <path id="Path_78" data-name="Path 78" d="M274.848,212.082a1.222,1.222,0,0,0,.634-1.408l-.649-3.352c-.12-.62-.6-.994-1.069-.836a1.222,1.222,0,0,0-.634,1.408l.649,3.352C273.9,211.866,274.378,212.24,274.848,212.082Z" transform="translate(-241.098 -122.432)"/>
  </g>
</svg>
