<svg xmlns="http://www.w3.org/2000/svg" xmlns:xlink="http://www.w3.org/1999/xlink" width="57" height="57" viewBox="0 0 57 57">
  <defs>
    <filter id="Ellipse_8" x="0" y="0" width="57" height="57" filterUnits="userSpaceOnUse">
      <feOffset dy="3" input="SourceAlpha"/>
      <feGaussianBlur stdDeviation="3" result="blur"/>
      <feFlood flood-opacity="0.161"/>
      <feComposite operator="in" in2="blur"/>
      <feComposite in="SourceGraphic"/>
    </filter>
  </defs>
  <g id="twitter" transform="translate(9 6)">
    <g transform="matrix(1, 0, 0, 1, -9, -6)" filter="url(#Ellipse_8)">
      <circle id="Ellipse_8-2" data-name="Ellipse 8" cx="19.5" cy="19.5" r="19.5" transform="translate(9 6)"/>
    </g>
    <path id="twitter-brands" d="M22.249,53.72c.016.247.016.495.016.742,0,7.547-5.114,16.244-14.46,16.244A13.243,13.243,0,0,1,0,68.144a9.371,9.371,0,0,0,1.227.071,9.494,9.494,0,0,0,6.31-2.439,5.2,5.2,0,0,1-4.752-3.959,5.723,5.723,0,0,0,.96.088,4.821,4.821,0,0,0,1.337-.194,5.586,5.586,0,0,1-4.075-5.6v-.071a4.7,4.7,0,0,0,2.3.725,5.918,5.918,0,0,1-2.266-4.755,6.209,6.209,0,0,1,.692-2.881A13.993,13.993,0,0,0,12.21,55.1a7.21,7.21,0,0,1-.126-1.308c0-3.146,2.266-5.709,5.082-5.709a4.829,4.829,0,0,1,3.713,1.8,9.367,9.367,0,0,0,3.226-1.379,5.624,5.624,0,0,1-2.234,3.146,9.323,9.323,0,0,0,2.927-.884,11.756,11.756,0,0,1-2.549,2.952Z" transform="translate(7 -40.082)" fill="#fff"/>
  </g>
</svg>
