<svg xmlns="http://www.w3.org/2000/svg" width="90" height="90" viewBox="0 0 90 90">
  <g id="web-development" transform="translate(0 -1)">
    <path id="Path_60" data-name="Path 60" d="M82.09,1H7.91A7.935,7.935,0,0,0,0,8.941V83.059A7.935,7.935,0,0,0,7.91,91H82.09A7.935,7.935,0,0,0,90,83.059V8.941A7.935,7.935,0,0,0,82.09,1ZM7.91,6.294H82.09a2.645,2.645,0,0,1,2.637,2.647V22.176H5.273V8.941A2.645,2.645,0,0,1,7.91,6.294ZM82.09,85.706H7.91a2.645,2.645,0,0,1-2.637-2.647V27.471H84.727V83.059A2.645,2.645,0,0,1,82.09,85.706Z"/>
    <path id="Path_61" data-name="Path 61" d="M215.492,196.211a2.633,2.633,0,0,0-3.462,1.39L196.21,234.66a2.638,2.638,0,1,0,4.847,2.086l15.82-37.059A2.651,2.651,0,0,0,215.492,196.211Z" transform="translate(-161.544 -160.585)"/>
    <path id="Path_62" data-name="Path 62" d="M93.882,241.993a2.63,2.63,0,0,0-3.706-.413L76.993,252.168a2.655,2.655,0,0,0,0,4.134L90.176,266.89a2.643,2.643,0,0,0,3.294-4.134l-10.61-8.521,10.61-8.521A2.654,2.654,0,0,0,93.882,241.993Z" transform="translate(-62.644 -197.646)"/>
    <path id="Path_63" data-name="Path 63" d="M348.467,252.167l-13.184-10.588a2.643,2.643,0,0,0-3.294,4.134l10.61,8.521-10.61,8.521a2.643,2.643,0,0,0,3.294,4.134L348.467,256.3A2.654,2.654,0,0,0,348.467,252.167Z" transform="translate(-272.816 -197.646)"/>
    <ellipse id="Ellipse_19" data-name="Ellipse 19" cx="2.672" cy="2.803" rx="2.672" ry="2.803" transform="translate(10.824 11.492)"/>
    <ellipse id="Ellipse_20" data-name="Ellipse 20" cx="2.429" cy="2.803" rx="2.429" ry="2.803" transform="translate(21.511 11.492)"/>
    <ellipse id="Ellipse_21" data-name="Ellipse 21" cx="2.672" cy="2.803" rx="2.672" ry="2.803" transform="translate(31.711 11.492)"/>
    <path id="Path_64" data-name="Path 64" d="M333.637,66.294h15.82a2.647,2.647,0,0,0,0-5.294h-15.82a2.647,2.647,0,0,0,0,5.294Z" transform="translate(-272.816 -49.412)"/>
  </g>
</svg>
